<mxfile host="app.diagrams.net" modified="2024-04-30T14:47:18.318Z" agent="Mozilla/5.0 (Windows NT 10.0; Win64; x64; rv:126.0) Gecko/20100101 Firefox/126.0" version="22.1.21" etag="1CtDeEbLk03md9IfsSzA" type="github">
  <diagram name="Page-1" id="unWvUNNUcJJyvE047Lg6">
    <mxGraphModel>
      <root>
        <mxCell id="0" />
        <mxCell id="1" parent="0" />
      </root>
    </mxGraphModel>
  </diagram>
</mxfile>
